<?xml version="1.0" encoding="UTF-8"?>
<svg xmlns="http://www.w3.org/2000/svg" viewBox="0 0 120.96 54.03">
  <defs>
    <style>
      .cls-1, .cls-2 {
        stroke-width: 0px;
      }

      .cls-2 {
        fill: #fff;
      }

      .cls-3 {
        font-family: MyriadPro-Regular, 'Myriad Pro';
        font-size: 36px;
      }
    </style>
  </defs>
  <g id="OBJECTS">
    <g>
      <path class="cls-1" d="m93.39,18.83c3.84.4,7.67.95,11.48,1.76,4.72,1.1,9.91,2.27,13.85,5.55,7.53,7.5-5.82,13.45-11.72,15.38-15.07,5.03-30.77,6.83-46.52,7.79,0,0,0-10,0-10,16.78.67,34.28.88,50.42-4.11,2.82-1.09,9.2-3.4,5.83-7.07-3.22-3.25-7.8-4.79-12.2-6.34-3.64-1.19-7.38-2.15-11.15-2.96h0Z"/>
      <path class="cls-1" d="m27.57,18.83c-11.95,2.48-40.29,11.23-12.2,17.89,14.68,3.2,30.12,3.31,45.11,2.59,0,0,0,10,0,10-15.75-.96-31.44-2.76-46.52-7.79-5.9-1.93-19.25-7.89-11.72-15.38,3.94-3.29,9.14-4.45,13.85-5.55,3.8-.81,7.64-1.35,11.48-1.76h0Z"/>
      <polygon class="cls-1" points="47.29 44.09 54.1 39.5 60.92 34.91 60.92 44.09 60.92 53.26 54.1 48.67 47.29 44.09"/>
      <polygon class="cls-2" points="54.1 48.67 47.29 44.09 54.1 39.5 58.96 36.24 58.96 34.15 53.14 38.06 46.32 42.65 44.18 44.09 46.32 45.53 53.14 50.11 58.96 54.03 58.96 51.94 54.1 48.67"/>
    </g>
  </g>
  <g id="TEXTS">
    <text class="cls-3" transform="translate(32.49 30.13)"><tspan x="0" y="0">360°</tspan></text>
  </g>
</svg>