<?xml version="1.0" encoding="utf-8"?>
<!-- Generator: Adobe Illustrator 28.0.0, SVG Export Plug-In . SVG Version: 6.00 Build 0)  -->
<svg version="1.1" xmlns="http://www.w3.org/2000/svg" xmlns:xlink="http://www.w3.org/1999/xlink" x="0px" y="0px"
	 viewBox="0 0 1366 768" style="enable-background:new 0 0 1366 768;" xml:space="preserve">
<style type="text/css">
	.st0{display:none;}
	.st1{display:inline;}
	.st2{fill:#FFFFFF;}
	.st3{fill:#010EFF;}
	.st4{fill:#FF9700;}
	.st5{fill:#FF5B4A;}
	.st6{fill:#1669FF;}
	.st7{fill:none;stroke:#7E3BFF;stroke-width:31;stroke-miterlimit:10;}
	.st8{fill:none;stroke:#A679FF;stroke-width:9;stroke-miterlimit:10;}
</style>
<g id="Capa_1" class="st0">
	<g class="st1">
		<g>
			<path class="st2" d="M304.82,377.85c0-121.09,0-242.18,0-363.3c247.02,0,494.04,0,741.06,0c0,120.09,0,240.16,0,360.23
				c0.15-2.11-0.34-4.18-0.34-6.29c0-4.67-0.34-9.31-0.73-13.96c-0.5-5.98-1.14-11.95-1.91-17.9c-1.02-7.85-2.32-15.65-3.84-23.42
				c-3.11-15.93-7.28-31.58-12.51-46.93c-16.17-47.45-40.87-89.95-74.25-127.33c-40.78-45.66-89.87-79.3-147.19-100.85
				c-21.2-7.97-42.98-13.81-65.28-17.73c-7.61-1.34-15.25-2.42-22.93-3.25c-5.97-0.64-11.94-1.22-17.93-1.53
				c-2.81-0.15-5.61-0.27-8.42-0.43c-5.42-0.32-10.85-0.32-16.28-0.32c-7.47,0.01-14.94,0.3-22.39,0.77
				c-6.44,0.4-12.86,0.97-19.26,1.71c-7.42,0.86-14.8,1.96-22.15,3.26c-12.13,2.14-24.13,4.89-35.98,8.26
				c-37.86,10.78-73.14,27.14-105.76,49.2c-40.54,27.42-74.41,61.49-101.56,102.22c-21.4,32.11-37.35,66.75-47.89,103.88
				c-3.14,11.06-5.76,22.23-7.83,33.53c-1.02,5.59-1.89,11.2-2.7,16.82c-0.71,4.93-1.26,9.88-1.72,14.84
				c-0.45,4.9-0.84,9.8-1.13,14.7c-0.2,3.32-0.3,6.63-0.42,9.95c-0.04,1.08-0.19,2.16-0.29,3.24
				C305.16,377.49,305.06,377.71,304.82,377.85z"/>
			<path class="st3" d="M304.82,377.85c0.24-0.14,0.34-0.36,0.36-0.62c0.1-1.08,0.25-2.16,0.29-3.24c0.12-3.32,0.22-6.64,0.42-9.95
				c0.29-4.91,0.68-9.81,1.13-14.7c0.46-4.96,1.01-9.91,1.72-14.84c0.81-5.62,1.68-11.24,2.7-16.82c2.07-11.3,4.69-22.48,7.83-33.53
				c10.54-37.13,26.49-71.77,47.89-103.88c27.15-40.73,61.02-74.81,101.56-102.22c32.62-22.05,67.9-38.42,105.76-49.2
				c11.85-3.37,23.85-6.11,35.98-8.26c7.36-1.3,14.74-2.41,22.15-3.26c6.4-0.74,12.83-1.31,19.26-1.71
				c7.46-0.47,14.92-0.76,22.39-0.77c5.43-0.01,10.86,0,16.28,0.32c2.8,0.17,5.61,0.29,8.42,0.43c5.99,0.32,11.97,0.89,17.93,1.53
				c7.68,0.82,15.33,1.91,22.93,3.25c22.3,3.92,44.08,9.76,65.28,17.73c57.32,21.55,106.41,55.19,147.19,100.85
				c33.38,37.38,58.09,79.88,74.25,127.33c5.23,15.36,9.4,31.01,12.51,46.93c1.52,7.77,2.82,15.57,3.84,23.42
				c0.78,5.95,1.41,11.92,1.91,17.9c0.39,4.65,0.73,9.3,0.73,13.96c0,2.1,0.48,4.18,0.34,6.29c0,7.03,0,14.05,0,21.08
				c0.15,2.17-0.35,4.31-0.34,6.48c0.02,6.78-0.64,13.52-1.29,20.25c-0.72,7.37-1.71,14.7-2.88,22.02
				c-1.67,10.4-3.77,20.71-6.33,30.93c-6.66,26.52-16.09,52.02-28.45,76.42c-24.39,48.17-57.66,89.15-99.8,122.89
				c-35.14,28.13-74.15,49.13-116.97,63.02c-18.24,5.92-36.82,10.36-55.76,13.35c-7.5,1.19-15.03,2.16-22.59,2.89
				c-6.61,0.63-13.23,1.14-19.87,1.34c-0.95,0.03-1.92-0.03-2.85,0.29c-10.47,0-20.95,0-31.42,0c-0.03-0.48-0.42-0.38-0.7-0.4
				c-7.46-0.42-14.9-1-22.33-1.83c-6.09-0.68-12.16-1.48-18.21-2.47c-9.82-1.6-19.57-3.59-29.24-5.97
				c-27.44-6.75-53.75-16.51-78.91-29.36c-47.49-24.25-87.95-57.18-121.34-98.76c-28.03-34.9-49.01-73.65-62.98-116.18
				c-6.79-20.66-11.68-41.76-14.7-63.3c-1.05-7.46-1.89-14.95-2.49-22.46c-0.47-5.86-0.83-11.72-0.96-17.6
				c-0.03-1.34-0.2-2.67-0.3-4.01c-0.02-0.27-0.12-0.49-0.36-0.62C304.82,387.81,304.82,382.83,304.82,377.85z M675.52,731.88
				c191.98-0.09,346.43-155.53,346.63-346.2c0.19-190.75-154.05-346.68-346.11-346.87c-192.38-0.19-346.63,155.81-346.82,346.16
				C329.03,575.38,483.05,731.58,675.52,731.88z"/>
			<path class="st2" d="M304.82,392.79c0.25,0.13,0.34,0.35,0.36,0.62c0.1,1.34,0.28,2.67,0.3,4.01c0.12,5.88,0.49,11.74,0.96,17.6
				c0.6,7.51,1.44,14.99,2.49,22.46c3.02,21.54,7.91,42.65,14.7,63.3c13.97,42.53,34.95,81.28,62.98,116.18
				c33.39,41.57,73.85,74.51,121.34,98.76c25.16,12.85,51.48,22.61,78.91,29.36c9.67,2.38,19.42,4.37,29.24,5.97
				c6.05,0.99,12.12,1.79,18.21,2.47c7.43,0.83,14.87,1.4,22.33,1.83c0.29,0.02,0.67-0.08,0.7,0.4c-117.51,0-235.01,0-352.52,0
				C304.82,634.75,304.82,513.77,304.82,392.79z"/>
			<path class="st2" d="M688.76,755.73c0.93-0.32,1.89-0.26,2.85-0.29c6.64-0.2,13.26-0.71,19.87-1.34
				c7.56-0.73,15.09-1.7,22.59-2.89c18.94-2.99,37.53-7.43,55.76-13.35c42.82-13.89,81.83-34.89,116.97-63.02
				c42.14-33.74,75.4-74.72,99.8-122.89c12.36-24.4,21.79-49.89,28.45-76.42c2.56-10.21,4.66-20.52,6.33-30.93
				c1.17-7.31,2.16-14.65,2.88-22.02c0.66-6.73,1.31-13.47,1.29-20.25c-0.01-2.17,0.49-4.31,0.34-6.48c0,119.96,0,239.92,0,359.87
				C926.84,755.73,807.8,755.73,688.76,755.73z"/>
			<path class="st2" d="M675.52,731.88c-192.47-0.29-346.5-156.49-346.3-346.91C329.41,194.61,483.66,38.61,676.04,38.8
				c192.05,0.19,346.3,156.12,346.11,346.87C1021.95,576.34,867.5,731.78,675.52,731.88z M371.2,386.27
				c0.04,166.47,134.54,300.42,299.51,301.28c166.65,0.87,302.29-133.76,302.76-300.33c0.47-166.04-133.52-301.48-300.08-302.04
				C506.23,84.61,371.29,219.87,371.2,386.27z"/>
			<path class="st3" d="M371.2,386.27c0.1-166.4,135.03-301.65,302.19-301.09c166.56,0.56,300.54,136,300.08,302.04
				c-0.47,166.57-136.11,301.19-302.76,300.33C505.73,686.69,371.24,552.74,371.2,386.27z M672.36,677.28
				c160.1,0.15,290.46-129.76,290.87-290.17c0.41-160.09-128.85-290.98-289.57-291.69c-161.2-0.71-291.42,129.46-292.21,289.43
				C380.66,546.77,511.88,677.48,672.36,677.28z"/>
			<path class="st2" d="M672.36,677.28c-160.48,0.2-291.7-130.51-290.91-292.42c0.78-159.97,131.01-290.14,292.21-289.43
				c160.72,0.71,289.99,131.6,289.57,291.69C962.82,547.52,832.46,677.43,672.36,677.28z M720.2,336.09
				c-0.11-4.36-0.81-8.33-2.62-12.06c-1.82-3.75-4.37-6.89-7.67-9.42c-3.3-2.53-7.01-4.16-11.1-4.9c-1.13-0.2-2.28-0.32-3.42-0.39
				c-1.14-0.07-2.3-0.07-3.44,0.12c-1.13,0.19-2.28,0.29-3.4,0.54c-1.12,0.25-2.22,0.58-3.3,0.98c-1.07,0.4-2.13,0.88-3.14,1.41
				c-0.96,0.51-1.88,1.09-2.76,1.72c-0.93,0.67-1.84,1.39-2.68,2.17c-0.84,0.78-1.62,1.63-2.35,2.52c-0.73,0.89-1.4,1.83-2,2.8
				c-0.6,0.97-1.13,2-1.62,3.04c-0.47,1.01-0.86,2.06-1.28,3.09c-0.26-1.18-0.27-2.3-0.27-3.43c0-21.4-0.01-42.79-0.01-64.19
				c0-3.61-0.56-7.12-1.84-10.5c-4.18-11.04-15.16-19.26-28.97-16.58c-8.97,1.74-15.26,7.07-18.93,15.44
				c-1.48,3.38-1.98,6.96-1.98,10.65c0.02,26.83,0.01,53.65,0.01,80.48c0,22.87,0.01,45.73,0.02,68.6c0,0.64,0.03,1.28-0.04,1.91
				c-0.08,0.76-0.62,1.33-1.32,1.45c-0.69,0.12-1.27-0.09-1.66-0.69c-0.27-0.43-0.5-0.89-0.73-1.34
				c-4.37-8.59-8.75-17.18-13.12-25.77c-4.05-7.96-8.12-15.92-12.15-23.9c-5.15-10.22-16.57-16.03-28.04-13.7
				c-16.56,3.37-24.86,20.47-18.92,35.11c0.48,1.18,0.94,2.37,1.39,3.57c14.15,37.7,28.29,75.4,42.43,113.1
				c0.38,1.02,0.82,2,1.34,2.96c10.81,19.77,21.61,39.55,32.42,59.32c0.31,0.56,0.61,1.13,0.96,1.65c1.43,2.12,3.4,3.4,5.93,3.85
				c1.01,0.18,2.03,0.2,3.05,0.2c51.28,0,102.56,0,153.84,0c0.45,0,0.89,0.01,1.34,0c4.54-0.18,7.81-2.86,8.86-7.31
				c0.38-1.61,0.73-3.24,1.09-4.86c2.87-13.09,5.73-26.18,8.6-39.26c2.88-13.15,5.77-26.3,8.65-39.45c1.33-6.04,2.61-12.1,4-18.13
				c1.08-4.68,1.82-9.4,1.84-14.21c0.02-6.2,0.03-12.39,0.03-18.59c0-16.61,0-33.21,0-49.82c0-1.66,0.02-3.33-0.26-4.97
				c-1.03-6.18-3.81-11.46-8.28-15.85c-9.5-9.33-22.83-8.99-31.97-2.62c-3.2,2.23-5.75,5.04-7.7,8.41
				c-0.23,0.39-0.33,0.94-1.01,1.09c0-3.47-0.01-6.85,0.01-10.23c0.01-2.19-0.25-4.34-0.78-6.45
				c-3.41-13.45-16.82-22.13-30.97-18.86c-6.08,1.41-10.96,4.72-14.75,9.67C721.18,334.96,720.91,335.53,720.2,336.09z"/>
			<path class="st4" d="M720.2,336.09c0.71-0.56,0.98-1.13,1.35-1.62c3.78-4.95,8.66-8.26,14.75-9.67
				c14.15-3.28,27.57,5.41,30.97,18.86c0.53,2.11,0.79,4.26,0.78,6.45c-0.02,3.38-0.01,6.76-0.01,10.23
				c0.67-0.15,0.78-0.7,1.01-1.09c1.95-3.37,4.5-6.18,7.7-8.41c9.14-6.37,22.47-6.71,31.97,2.62c4.47,4.39,7.25,9.67,8.28,15.85
				c0.27,1.64,0.26,3.31,0.26,4.97c0,16.61,0,33.21,0,49.82c0,6.2-0.01,12.39-0.03,18.59c-0.02,4.81-0.76,9.53-1.84,14.21
				c-1.39,6.03-2.68,12.08-4,18.13c-2.89,13.15-5.77,26.3-8.65,39.45c-2.87,13.09-5.73,26.18-8.6,39.26
				c-0.35,1.62-0.7,3.24-1.09,4.86c-1.05,4.45-4.32,7.13-8.86,7.31c-0.45,0.02-0.89,0-1.34,0c-51.28,0-102.56,0-153.84,0
				c-1.02,0-2.04-0.02-3.05-0.2c-2.53-0.45-4.5-1.73-5.93-3.85c-0.36-0.53-0.66-1.09-0.96-1.65
				c-10.81-19.77-21.61-39.55-32.42-59.32c-0.52-0.96-0.96-1.94-1.34-2.96c-14.14-37.7-28.28-75.4-42.43-113.1
				c-0.45-1.19-0.91-2.39-1.39-3.57c-5.94-14.65,2.37-31.74,18.92-35.11c11.47-2.33,22.89,3.48,28.04,13.7
				c4.02,7.98,8.09,15.93,12.15,23.9c4.37,8.59,8.74,17.18,13.12,25.77c0.23,0.45,0.46,0.92,0.73,1.34c0.38,0.6,0.97,0.81,1.66,0.69
				c0.7-0.12,1.24-0.69,1.32-1.45c0.06-0.63,0.04-1.28,0.04-1.91c-0.01-22.87-0.02-45.73-0.02-68.6c0-26.83,0.02-53.65-0.01-80.48
				c0-3.69,0.49-7.27,1.98-10.65c3.67-8.37,9.96-13.7,18.93-15.44c13.82-2.68,24.79,5.54,28.97,16.58c1.28,3.38,1.84,6.89,1.84,10.5
				c0,21.4,0.01,42.79,0.01,64.19c0,1.13,0.01,2.25,0.27,3.43c0.42-1.03,0.81-2.08,1.28-3.09c0.49-1.04,1.01-2.07,1.62-3.04
				c0.6-0.97,1.28-1.91,2-2.8c0.73-0.89,1.51-1.74,2.35-2.52c0.84-0.78,1.74-1.5,2.68-2.17c0.88-0.63,1.8-1.21,2.76-1.72
				c1.01-0.54,2.06-1.01,3.14-1.41c1.07-0.4,2.18-0.73,3.3-0.98c1.12-0.25,2.27-0.35,3.4-0.54c1.14-0.19,2.29-0.19,3.44-0.12
				c1.15,0.07,2.29,0.19,3.42,0.39c4.09,0.74,7.8,2.36,11.1,4.9c3.3,2.53,5.85,5.67,7.67,9.42
				C719.38,327.76,720.09,331.73,720.2,336.09z"/>
		</g>
	</g>
</g>
<g id="Capa_2">
	<g>
		<path class="st5" d="M790.26,348.89c-10.73-0.59-20.06,5.57-24.21,14.6v-11.06c0-13.86-11.24-25.09-25.09-25.09l0,0
			c-9.14,0-17.12,4.91-21.51,12.22v-1.46c0-13.86-11.24-25.09-25.09-25.09h0c-12,0-22.03,8.43-24.5,19.7v-68.24
			c0-12.89-9.25-24.46-22.05-25.97c-15.22-1.79-28.14,10.05-28.14,24.91v147.37c0,1.71-2.3,2.26-3.08,0.74l-24.8-48.72
			c-5.85-12.56-20.78-18-33.35-12.15c-12.56,5.85-18,20.78-12.15,33.35l42.73,113.89l32.74,59.91c1.53,2.8,4.47,4.54,7.66,4.54
			h152.4c4.1,0,7.64-2.85,8.52-6.86l21.6-98.52c1.32-5.13,1.99-10.42,1.99-15.72v-66.22C813.93,361.93,803.32,349.61,790.26,348.89z
			"/>
		<g>
			<g>
				<g>
					<path class="st6" d="M639.45,215.12c-4.82-0.01-8.72-3.92-8.71-8.74l0.08-40.71c0.01-4.82,3.92-8.72,8.74-8.71
						c4.82,0.01,8.72,3.92,8.71,8.74l-0.08,40.71C648.18,211.23,644.26,215.13,639.45,215.12z"/>
				</g>
			</g>
			<g>
				<g>
					<path class="st6" d="M661.28,221.7c-1.64,0-3.31-0.47-4.78-1.44c-4.02-2.66-5.13-8.07-2.47-12.09l22.43-33.97
						c2.65-4.02,8.07-5.13,12.09-2.47c4.02,2.66,5.13,8.07,2.47,12.09l-22.44,33.97C666.91,220.33,664.12,221.71,661.28,221.7z"/>
				</g>
			</g>
			<g>
				<g>
					<path class="st6" d="M617.58,221.62c-2.84-0.01-5.62-1.39-7.29-3.95l-22.3-34.06c-2.64-4.03-1.51-9.44,2.52-12.08
						c4.03-2.64,9.44-1.51,12.08,2.52l22.3,34.06c2.64,4.03,1.51,9.44-2.52,12.08C620.89,221.16,619.23,221.62,617.58,221.62z"/>
				</g>
			</g>
			<g>
				<g>
					<path class="st6" d="M603.2,238.31c-1.21,0-2.44-0.26-3.62-0.8l-37-16.98c-4.38-2.01-6.3-7.19-4.29-11.57
						c2.01-4.38,7.19-6.31,11.57-4.29l37,16.98c4.38,2.01,6.3,7.19,4.29,11.57C609.68,236.43,606.51,238.31,603.2,238.31z"/>
				</g>
			</g>
			<g>
				<g>
					<path class="st6" d="M675.37,237.96c-3.27-0.01-6.4-1.86-7.88-5.01c-2.05-4.36-0.18-9.56,4.18-11.61l36.84-17.33
						c4.36-2.06,9.56-0.18,11.61,4.18c2.05,4.36,0.18,9.56-4.18,11.61l-36.84,17.33C677.89,237.7,676.62,237.97,675.37,237.96z"/>
				</g>
			</g>
		</g>
	</g>
	<circle class="st7" cx="675" cy="382.55" r="360"/>
	<circle class="st8" cx="675" cy="382.55" r="303.27"/>
</g>
</svg>
